<?xml version="1.0" encoding="UTF-8" standalone="no" ?>
<!DOCTYPE svg PUBLIC "-//W3C//DTD SVG 1.1//EN" "http://www.w3.org/Graphics/SVG/1.1/DTD/svg11.dtd">
<svg xmlns="http://www.w3.org/2000/svg" xmlns:xlink="http://www.w3.org/1999/xlink" version="1.1" width="1080" height="1080" viewBox="0 0 1080 1080" xml:space="preserve">
<desc>Created with Fabric.js 5.2.4</desc>
<defs>
</defs>
<g transform="matrix(1 0 0 1 540 540)" id="a972edf5-9ae2-499e-b57d-9149d3457fc3"  >
<rect style="stroke: none; stroke-width: 1; stroke-dasharray: none; stroke-linecap: butt; stroke-dashoffset: 0; stroke-linejoin: miter; stroke-miterlimit: 4; fill: rgb(255,255,255); fill-rule: nonzero; opacity: 1; visibility: hidden;" vector-effect="non-scaling-stroke"  x="-540" y="-540" rx="0" ry="0" width="1080" height="1080" />
</g>
<g transform="matrix(1 0 0 1 540 540)" id="fe8b162c-980a-4c98-bdd3-61c4a4a0ea4d"  >
</g>
<g transform="matrix(2.11 0 0 2.11 540 540)"  >
<path style="stroke: none; stroke-width: 1; stroke-dasharray: none; stroke-linecap: butt; stroke-dashoffset: 0; stroke-linejoin: miter; stroke-miterlimit: 4; fill: rgb(0,0,0); fill-rule: nonzero; opacity: 1;"  transform=" translate(-256, -256)" d="M 256 48 C 370.87522796480505 48 464 141.1247720351949 464 255.99999999999994 C 464 370.875227964805 370.8752279648051 463.99999999999994 256.00000000000006 464 C 141.12477203519495 464 48 370.87522796480505 48 256 C 48 141.12477203519495 141.12477203519495 48 256 48 z M 256 512 C 397.3848959566831 512 512 397.3848959566831 512 256 C 512 114.61510404331688 397.3848959566831 0 256 0 C 114.61510404331688 0 0 114.61510404331688 0 256 C 0 397.3848959566831 114.61510404331688 512 256 512 z M 369 209 C 378.4 199.6 378.4 184.4 369 175.1 C 359.6 165.79999999999998 344.4 165.7 335.1 175.1 L 224.10000000000002 286.1 L 177.10000000000002 239.10000000000002 C 167.70000000000002 229.70000000000002 152.50000000000003 229.70000000000002 143.20000000000002 239.10000000000002 C 133.9 248.50000000000003 133.8 263.70000000000005 143.20000000000002 273 L 207.20000000000002 337 C 216.60000000000002 346.4 231.8 346.4 241.10000000000002 337 L 369 209 z" stroke-linecap="round" />
</g>
</svg>